<svg width="34" height="48" viewBox="0 0 34 48" fill="none" xmlns="http://www.w3.org/2000/svg">
<g id="bolt-lightning-solid 1">
<path id="Vector" d="M0 23.9954L2.46212 3.04959C2.6349 1.57971 3.80981 0.477295 5.20933 0.477295H19.7747C21.0706 0.477295 22.1159 1.58889 22.1159 2.96691C22.1159 3.26089 22.0641 3.56405 21.969 3.83965L17.9692 15.1761H30.0033C31.7484 15.1761 33.1738 16.6828 33.1738 18.5477C33.1738 19.2275 32.9838 19.8889 32.6209 20.4493L16.0167 46.2642C15.507 47.0542 14.6691 47.5227 13.7792 47.5227H13.5287C12.1724 47.5227 11.0666 46.3468 11.0666 44.9045C11.0666 44.6932 11.0925 44.4819 11.1443 44.2706L15.2047 26.9352H2.76449C1.23538 26.9352 0 25.6215 0 23.9954Z" fill="black"/>
</g>
</svg>
