<svg width="22" height="22" viewBox="0 0 22 22" fill="none" xmlns="http://www.w3.org/2000/svg">
<g id="download-simple 2" clip-path="url(#clip0_211_331)">
<path id="Vector" d="M22 13.75V21.0833C22 21.3264 21.9034 21.5596 21.7315 21.7315C21.5596 21.9034 21.3264 22 21.0833 22H0.916667C0.673552 22 0.440394 21.9034 0.268486 21.7315C0.0965773 21.5596 0 21.3264 0 21.0833V13.75C0 13.5069 0.0965773 13.2737 0.268486 13.1018C0.440394 12.9299 0.673552 12.8333 0.916667 12.8333C1.15978 12.8333 1.39294 12.9299 1.56485 13.1018C1.73676 13.2737 1.83333 13.5069 1.83333 13.75V20.1667H20.1667V13.75C20.1667 13.5069 20.2632 13.2737 20.4352 13.1018C20.6071 12.9299 20.8402 12.8333 21.0833 12.8333C21.3264 12.8333 21.5596 12.9299 21.7315 13.1018C21.9034 13.2737 22 13.5069 22 13.75ZM10.3515 14.3985C10.4366 14.4838 10.5377 14.5514 10.649 14.5975C10.7603 14.6436 10.8795 14.6674 11 14.6674C11.1205 14.6674 11.2397 14.6436 11.351 14.5975C11.4623 14.5514 11.5634 14.4838 11.6485 14.3985L16.2319 9.81521C16.317 9.73004 16.3846 9.62893 16.4307 9.51766C16.4768 9.40638 16.5005 9.28711 16.5005 9.16667C16.5005 9.04622 16.4768 8.92696 16.4307 8.81568C16.3846 8.7044 16.317 8.60329 16.2319 8.51812C16.1467 8.43296 16.0456 8.3654 15.9343 8.31931C15.823 8.27321 15.7038 8.24949 15.5833 8.24949C15.4629 8.24949 15.3436 8.27321 15.2323 8.31931C15.1211 8.3654 15.02 8.43296 14.9348 8.51812L11.9167 11.5374V0.916667C11.9167 0.673552 11.8201 0.440394 11.6482 0.268485C11.4763 0.0965771 11.2431 0 11 0C10.7569 0 10.5237 0.0965771 10.3518 0.268485C10.1799 0.440394 10.0833 0.673552 10.0833 0.916667V11.5374L7.06521 8.51812C6.89321 8.34612 6.65992 8.24949 6.41667 8.24949C6.17342 8.24949 5.94013 8.34612 5.76812 8.51812C5.59612 8.69013 5.49949 8.92342 5.49949 9.16667C5.49949 9.40992 5.59612 9.6432 5.76812 9.81521L10.3515 14.3985Z" fill="black"/>
</g>
<defs>
<clipPath id="clip0_211_331">
<rect width="22" height="22" fill="white"/>
</clipPath>
</defs>
</svg>
