<svg width="36" height="37" viewBox="0 0 36 37" fill="none" xmlns="http://www.w3.org/2000/svg">
<path id="Vector" d="M36 5.64286C36 2.80625 33.6937 0.5 30.8571 0.5H5.14286C2.30625 0.5 0 2.80625 0 5.64286V31.3571C0 34.1937 2.30625 36.5 5.14286 36.5H30.8571C33.6937 36.5 36 34.1937 36 31.3571V5.64286ZM21.3589 30.6902C21.3589 30.5455 21.3589 30.208 21.367 29.758C21.375 28.842 21.375 27.4437 21.375 26.2464C21.375 24.9929 20.9571 24.1973 20.467 23.7795C23.4402 23.45 26.5741 23.0402 26.5741 17.9054C26.5741 16.4429 26.0518 15.7116 25.2 14.7714C25.3366 14.4259 25.7946 13.0036 25.0634 11.1554C23.9464 10.8098 21.3911 12.5938 21.3911 12.5938C20.3304 12.2964 19.1812 12.1437 18.0482 12.1437C16.9152 12.1437 15.7661 12.2964 14.7054 12.5938C14.7054 12.5938 12.15 10.8098 11.033 11.1554C10.3018 12.9955 10.7518 14.4179 10.8964 14.7714C10.0446 15.7116 9.64286 16.4429 9.64286 17.9054C9.64286 23.0161 12.6402 23.45 15.6134 23.7795C15.2277 24.125 14.8821 24.7196 14.7616 25.5714C13.9982 25.917 12.0455 26.5116 10.8804 24.4545C10.1491 23.1848 8.83125 23.0804 8.83125 23.0804C7.52946 23.0643 8.74286 23.9 8.74286 23.9C9.61071 24.3018 10.2214 25.8446 10.2214 25.8446C11.0009 28.2313 14.7295 27.4277 14.7295 27.4277C14.7295 28.1509 14.7375 29.1714 14.7375 29.8866C14.7375 30.2723 14.7455 30.5777 14.7455 30.6902C14.7455 31.0357 14.5045 31.4536 13.8214 31.333C8.51786 29.5571 4.80536 24.5107 4.80536 18.6125C4.80536 11.2357 10.4464 5.63482 17.8232 5.63482C25.2 5.63482 31.1786 11.2357 31.1786 18.6125C31.1866 24.5107 27.5866 29.5652 22.283 31.333C21.608 31.4536 21.3589 31.0357 21.3589 30.6902ZM14.0866 26.2866C14.0705 26.1661 14.175 26.0616 14.3277 26.0295C14.4804 26.0134 14.625 26.0777 14.6411 26.1821C14.6652 26.2866 14.5607 26.3911 14.4 26.4232C14.2473 26.4554 14.1027 26.3911 14.0866 26.2866ZM13.3554 26.5438C13.1786 26.5598 13.058 26.4714 13.058 26.3509C13.058 26.2464 13.1786 26.158 13.3393 26.158C13.492 26.142 13.6366 26.2304 13.6366 26.3509C13.6366 26.4554 13.5161 26.5438 13.3554 26.5438ZM12.2062 26.367C12.0536 26.3348 11.9491 26.2143 11.9813 26.1098C12.0134 26.0054 12.1741 25.9571 12.3107 25.9893C12.4714 26.0375 12.5759 26.158 12.5357 26.2625C12.5036 26.367 12.3429 26.4152 12.2062 26.367ZM11.2018 25.7804C11.0812 25.6759 11.0491 25.5232 11.1295 25.4509C11.2018 25.3625 11.3545 25.3786 11.475 25.4991C11.5795 25.6036 11.6196 25.7643 11.5473 25.8286C11.475 25.917 11.3223 25.9009 11.2018 25.7804ZM10.5187 24.9768C10.4304 24.8563 10.4304 24.7196 10.5187 24.6634C10.6071 24.5911 10.7437 24.6473 10.8161 24.7679C10.9045 24.8884 10.9045 25.033 10.8161 25.0973C10.7437 25.1455 10.6071 25.0973 10.5187 24.9768ZM10.0125 24.2696C9.92411 24.1652 9.90804 24.0446 9.98036 23.9884C10.0527 23.9161 10.1732 23.9562 10.2616 24.0366C10.35 24.1411 10.3661 24.2616 10.2938 24.3179C10.2214 24.3902 10.1009 24.35 10.0125 24.2696ZM9.53036 23.7554C9.42589 23.7071 9.37768 23.6187 9.40982 23.5464C9.44196 23.4982 9.53036 23.4741 9.63482 23.5143C9.73929 23.5705 9.7875 23.6589 9.75536 23.7232C9.72321 23.7955 9.61875 23.8116 9.53036 23.7554Z" fill="#404040"/>
</svg>
