<svg width="55" height="54" viewBox="0 0 55 54" fill="none" xmlns="http://www.w3.org/2000/svg">
<path id="Vector" d="M54.5 7.71429C54.5 3.45938 51.0406 0 46.7857 0H8.21429C3.95938 0 0.5 3.45938 0.5 7.71429V46.2857C0.5 50.5406 3.95938 54 8.21429 54H46.7857C51.0406 54 54.5 50.5406 54.5 46.2857V7.71429ZM32.5384 45.2853C32.5384 45.0683 32.5384 44.5621 32.5504 43.8871C32.5625 42.5129 32.5625 40.4156 32.5625 38.6196C32.5625 36.7393 31.9357 35.546 31.2004 34.9192C35.6603 34.425 40.3612 33.8103 40.3612 26.108C40.3612 23.9143 39.5777 22.8174 38.3 21.4071C38.5049 20.8888 39.192 18.7554 38.0951 15.983C36.4196 15.4647 32.5866 18.1406 32.5866 18.1406C30.9955 17.6946 29.2719 17.4656 27.5723 17.4656C25.8728 17.4656 24.1491 17.6946 22.558 18.1406C22.558 18.1406 18.725 15.4647 17.0496 15.983C15.9527 18.7433 16.6277 20.8768 16.8446 21.4071C15.567 22.8174 14.9643 23.9143 14.9643 26.108C14.9643 33.7741 19.4603 34.425 23.9201 34.9192C23.3415 35.4375 22.8232 36.3295 22.6424 37.6071C21.4973 38.1254 18.5683 39.0174 16.8205 35.9317C15.7237 34.0272 13.7469 33.8705 13.7469 33.8705C11.7942 33.8464 13.6143 35.1 13.6143 35.1C14.9161 35.7027 15.8321 38.017 15.8321 38.017C17.0013 41.5969 22.5942 40.3915 22.5942 40.3915C22.5942 41.4763 22.6062 43.0071 22.6062 44.0799C22.6062 44.6585 22.6183 45.1165 22.6183 45.2853C22.6183 45.8036 22.2567 46.4304 21.2321 46.2496C13.2768 43.5857 7.70804 36.0161 7.70804 27.1687C7.70804 16.1036 16.1696 7.70223 27.2348 7.70223C38.3 7.70223 47.2679 16.1036 47.2679 27.1687C47.2799 36.0161 41.8799 43.5978 33.9246 46.2496C32.9121 46.4304 32.5384 45.8036 32.5384 45.2853ZM21.6299 38.6799C21.6058 38.4991 21.7625 38.3424 21.9915 38.2942C22.2205 38.2701 22.4375 38.3665 22.4616 38.5232C22.4978 38.6799 22.3411 38.8366 22.1 38.8848C21.871 38.933 21.654 38.8366 21.6299 38.6799ZM20.533 39.0656C20.2679 39.0897 20.0871 38.9571 20.0871 38.7763C20.0871 38.6196 20.2679 38.4871 20.5089 38.4871C20.7379 38.4629 20.9549 38.5955 20.9549 38.7763C20.9549 38.933 20.7741 39.0656 20.533 39.0656ZM18.8094 38.8004C18.5804 38.7522 18.4237 38.5714 18.4719 38.4147C18.5201 38.258 18.7612 38.1857 18.9661 38.2339C19.2071 38.3063 19.3638 38.4871 19.3036 38.6438C19.2554 38.8004 19.0143 38.8728 18.8094 38.8004ZM17.3027 37.9205C17.1219 37.7638 17.0737 37.5348 17.1942 37.4263C17.3027 37.2938 17.5317 37.3179 17.7125 37.4987C17.8692 37.6554 17.9295 37.8964 17.821 37.9929C17.7125 38.1255 17.4835 38.1013 17.3027 37.9205ZM16.2781 36.7152C16.1455 36.5344 16.1455 36.3295 16.2781 36.2451C16.4107 36.1366 16.6156 36.221 16.7241 36.4018C16.8567 36.5826 16.8567 36.7996 16.7241 36.896C16.6156 36.9683 16.4107 36.896 16.2781 36.7152ZM15.5188 35.6545C15.3862 35.4978 15.3621 35.317 15.4705 35.2326C15.579 35.1241 15.7598 35.1844 15.8924 35.3049C16.025 35.4616 16.0491 35.6424 15.9406 35.7268C15.8321 35.8353 15.6513 35.775 15.5188 35.6545ZM14.7955 34.883C14.6388 34.8107 14.5665 34.6781 14.6147 34.5696C14.6629 34.4973 14.7955 34.4612 14.9522 34.5214C15.1089 34.6058 15.1813 34.7384 15.133 34.8348C15.0848 34.9433 14.9281 34.9674 14.7955 34.883Z" fill="black"/>
</svg>
