<svg width="42" height="56" viewBox="0 0 42 56" fill="none" xmlns="http://www.w3.org/2000/svg">
<g filter="url(#filter0_d_28_15)">
<path d="M4 23.9954L6.46212 3.04958C6.6349 1.57969 7.80981 0.47728 9.20933 0.47728H23.7747C25.0706 0.47728 26.1159 1.58888 26.1159 2.96689C26.1159 3.26087 26.0641 3.56403 25.969 3.83964L21.9692 15.1761H34.0033C35.7484 15.1761 37.1738 16.6827 37.1738 18.5477C37.1738 19.2275 36.9838 19.8889 36.6209 20.4493L20.0167 46.2641C19.507 47.0542 18.6691 47.5227 17.7792 47.5227H17.5287C16.1724 47.5227 15.0666 46.3468 15.0666 44.9045C15.0666 44.6932 15.0925 44.4819 15.1443 44.2706L19.2047 26.9352H6.76449C5.23538 26.9352 4 25.6215 4 23.9954Z" fill="#A259FF"/>
</g>
<defs>
<filter id="filter0_d_28_15" x="0" y="0.47728" width="41.3335" height="55.0455" filterUnits="userSpaceOnUse" color-interpolation-filters="sRGB">
<feFlood flood-opacity="0" result="BackgroundImageFix"/>
<feColorMatrix in="SourceAlpha" type="matrix" values="0 0 0 0 0 0 0 0 0 0 0 0 0 0 0 0 0 0 127 0" result="hardAlpha"/>
<feOffset dy="4"/>
<feGaussianBlur stdDeviation="2"/>
<feColorMatrix type="matrix" values="0 0 0 0 0 0 0 0 0 0 0 0 0 0 0 0 0 0 0.25 0"/>
<feBlend mode="normal" in2="BackgroundImageFix" result="effect1_dropShadow_28_15"/>
<feBlend mode="normal" in="SourceGraphic" in2="effect1_dropShadow_28_15" result="shape"/>
</filter>
</defs>
</svg>
