<svg width="55" height="54" viewBox="0 0 55 54" fill="none" xmlns="http://www.w3.org/2000/svg">
<path id="Vector" d="M50.6429 0H4.34509C2.22366 0 0.5 1.74777 0.5 3.8933V50.1067C0.5 52.2522 2.22366 54 4.34509 54H50.6429C52.7643 54 54.5 52.2522 54.5 50.1067V3.8933C54.5 1.74777 52.7643 0 50.6429 0ZM16.8205 46.2857H8.81696V20.5152H16.8326V46.2857H16.8205ZM12.8187 16.9955C10.2513 16.9955 8.17813 14.9103 8.17813 12.3549C8.17813 9.79955 10.2513 7.71429 12.8187 7.71429C15.3741 7.71429 17.4594 9.79955 17.4594 12.3549C17.4594 14.9223 15.3862 16.9955 12.8187 16.9955ZM46.8219 46.2857H38.8183V33.75C38.8183 30.7607 38.758 26.9156 34.6598 26.9156C30.4893 26.9156 29.8504 30.1701 29.8504 33.533V46.2857H21.8469V20.5152H29.525V24.0348H29.6335C30.7062 22.0098 33.3219 19.8763 37.2152 19.8763C45.3152 19.8763 46.8219 25.2161 46.8219 32.1589V46.2857Z" fill="black"/>
</svg>
