<svg width="36" height="37" viewBox="0 0 36 37" fill="none" xmlns="http://www.w3.org/2000/svg">
<path id="Vector" d="M33.4286 0.5H2.56339C1.14911 0.5 0 1.66518 0 3.09554V33.9045C0 35.3348 1.14911 36.5 2.56339 36.5H33.4286C34.8429 36.5 36 35.3348 36 33.9045V3.09554C36 1.66518 34.8429 0.5 33.4286 0.5ZM10.8804 31.3571H5.54464V14.1768H10.8884V31.3571H10.8804ZM8.2125 11.8304C6.50089 11.8304 5.11875 10.4402 5.11875 8.73661C5.11875 7.03304 6.50089 5.64286 8.2125 5.64286C9.91607 5.64286 11.3063 7.03304 11.3063 8.73661C11.3063 10.4482 9.92411 11.8304 8.2125 11.8304ZM30.8813 31.3571H25.5455V23C25.5455 21.0071 25.5054 18.4438 22.7732 18.4438C19.9929 18.4438 19.567 20.6134 19.567 22.8554V31.3571H14.2313V14.1768H19.35V16.5232H19.4223C20.1375 15.1732 21.8813 13.7509 24.4768 13.7509C29.8768 13.7509 30.8813 17.3107 30.8813 21.9393V31.3571Z" fill="#404040"/>
</svg>
