<svg width="36" height="37" viewBox="0 0 36 37" fill="none" xmlns="http://www.w3.org/2000/svg">
<path id="Vector" d="M5.14286 0.5C2.30625 0.5 0 2.80625 0 5.64286V31.3571C0 34.1937 2.30625 36.5 5.14286 36.5H30.8571C33.6937 36.5 36 34.1937 36 31.3571V5.64286C36 2.80625 33.6937 0.5 30.8571 0.5H5.14286ZM17.5179 19.7616L5.15893 11.7821C5.30357 10.4964 6.38839 9.5 7.71429 9.5H28.2857C29.6116 9.5 30.6964 10.4964 30.8411 11.7821L18.4821 19.7616C18.3375 19.858 18.1687 19.9062 18 19.9062C17.8312 19.9062 17.6625 19.858 17.5179 19.7616ZM19.8804 21.9232L30.8571 14.8357V24.9286C30.8571 26.3509 29.708 27.5 28.2857 27.5H7.71429C6.29196 27.5 5.14286 26.3509 5.14286 24.9286V14.8357L16.1196 21.9232C16.6821 22.2848 17.333 22.4777 18 22.4777C18.667 22.4777 19.3179 22.2848 19.8804 21.9232Z" fill="#404040"/>
</svg>
