<svg width="55" height="54" viewBox="0 0 55 54" fill="none" xmlns="http://www.w3.org/2000/svg">
<path id="Vector" d="M8.21429 0C3.95938 0 0.5 3.45938 0.5 7.71429V46.2857C0.5 50.5406 3.95938 54 8.21429 54H46.7857C51.0406 54 54.5 50.5406 54.5 46.2857V7.71429C54.5 3.45938 51.0406 0 46.7857 0H8.21429ZM26.7768 28.8924L8.23839 16.9232C8.45536 14.9946 10.0826 13.5 12.0714 13.5H42.9286C44.9174 13.5 46.5446 14.9946 46.7616 16.9232L28.2232 28.8924C28.0063 29.0371 27.7531 29.1094 27.5 29.1094C27.2469 29.1094 26.9937 29.0371 26.7768 28.8924ZM30.3205 32.1348L46.7857 21.5036V36.6429C46.7857 38.7763 45.0621 40.5 42.9286 40.5H12.0714C9.93795 40.5 8.21429 38.7763 8.21429 36.6429V21.5036L24.6795 32.1348C25.5232 32.6772 26.4996 32.9665 27.5 32.9665C28.5004 32.9665 29.4768 32.6772 30.3205 32.1348Z" fill="black"/>
</svg>
