<svg width="24" height="20" viewBox="0 0 24 20" fill="none" xmlns="http://www.w3.org/2000/svg">
<path id="Vector" d="M22.8372 10.7547C22.9363 10.6556 23.015 10.538 23.0687 10.4085C23.1224 10.279 23.15 10.1402 23.15 10C23.15 9.85983 23.1224 9.72104 23.0687 9.59155C23.015 9.46206 22.9363 9.34442 22.8372 9.24536L14.5875 0.99569C14.3874 0.795561 14.1159 0.68313 13.8329 0.68313C13.5499 0.68313 13.2785 0.795561 13.0783 0.99569C12.8782 1.19582 12.7658 1.46725 12.7658 1.75028C12.7658 2.0333 12.8782 2.30473 13.0783 2.50486L13.0783 2.50487L19.5079 8.93337H1.91664C1.63375 8.93337 1.36244 9.04575 1.16241 9.24578C0.962378 9.44581 0.85 9.71712 0.85 10C0.85 10.2829 0.962378 10.5542 1.16241 10.7542C1.36244 10.9543 1.63375 11.0666 1.91664 11.0666H19.5079L13.0783 17.4951L13.1844 17.6012L13.0783 17.4951C12.8782 17.6953 12.7658 17.9667 12.7658 18.2497C12.7658 18.5328 12.8782 18.8042 13.0783 19.0043C13.2785 19.2045 13.5499 19.3169 13.8329 19.3169C14.1159 19.3169 14.3874 19.2045 14.5875 19.0043L22.8372 10.7547ZM22.8372 10.7547L22.7312 10.6485L22.8372 10.7546L22.8372 10.7547Z" fill="white" stroke="white" stroke-width="0.3"/>
</svg>
